<svg width="1200" height="900" viewBox="0 0 1200 900" fill="none" xmlns="http://www.w3.org/2000/svg" role="img" aria-labelledby="title desc">
  <title id="title">岡山駅周辺の街並みをイメージしたダミーイラスト</title>
  <desc id="desc">やわらかい色合いで描いた駅前広場、建物、路面、緑地のプレースホルダー画像です。</desc>
  <rect width="1200" height="900" fill="#F7F3EC"/>
  <rect y="560" width="1200" height="340" fill="#ECE7DE"/>
  <rect y="0" width="1200" height="420" fill="#E6F0EE"/>
  <path d="M0 420C110 380 186 380 312 420C432 458 510 458 624 420C732 384 838 382 946 420C1056 458 1124 458 1200 430V560H0V420Z" fill="#D9E8E2"/>
  <circle cx="957" cy="145" r="46" fill="#F3D38A"/>
  <g opacity="0.95">
    <rect x="106" y="270" width="112" height="292" rx="6" fill="#C7D7D3"/>
    <rect x="230" y="240" width="126" height="322" rx="6" fill="#B7C8C4"/>
    <rect x="372" y="196" width="134" height="366" rx="6" fill="#C0CFCC"/>
    <rect x="520" y="252" width="96" height="310" rx="6" fill="#AABCB9"/>
    <rect x="830" y="222" width="108" height="340" rx="6" fill="#C9D7D5"/>
    <rect x="952" y="262" width="84" height="300" rx="6" fill="#B7C8C4"/>
  </g>
  <g opacity="0.9">
    <rect x="640" y="330" width="138" height="170" rx="14" fill="#F5F1EA" stroke="#D6CEC1" stroke-width="4"/>
    <rect x="670" y="366" width="78" height="44" rx="8" fill="#E6F0EE"/>
    <rect x="662" y="428" width="94" height="46" rx="8" fill="#D9E8E2"/>
    <text x="709" y="392" text-anchor="middle" fill="#4E5D67" font-family="Arial, 'Noto Sans JP', sans-serif" font-size="18">OKAYAMA</text>
    <text x="709" y="457" text-anchor="middle" fill="#65707B" font-family="Arial, 'Noto Sans JP', sans-serif" font-size="16">STATION</text>
  </g>
  <path d="M0 620H1200" stroke="#D8D0C4" stroke-width="6"/>
  <path d="M0 692H1200" stroke="#E3DDD2" stroke-width="86"/>
  <path d="M0 774H1200" stroke="#D0C8BB" stroke-width="12"/>
  <path d="M0 836H1200" stroke="#F8F5EF" stroke-width="24" stroke-dasharray="38 28"/>
  <rect x="62" y="614" width="172" height="204" rx="24" fill="#FFFFFF" stroke="#DDD6CA" stroke-width="4"/>
  <rect x="82" y="638" width="132" height="18" rx="9" fill="#D9E8E2"/>
  <rect x="82" y="668" width="96" height="18" rx="9" fill="#E9F1ED"/>
  <rect x="82" y="708" width="70" height="70" rx="35" fill="#E6F0EE"/>
  <path d="M360 615C406 575 470 575 518 615L562 654L594 630C626 606 676 606 708 630L814 708H282L360 615Z" fill="#E0D7C9"/>
  <rect x="300" y="708" width="528" height="114" rx="20" fill="#F3EFE7" stroke="#DED4C6" stroke-width="4"/>
  <rect x="336" y="740" width="110" height="42" rx="12" fill="#D9E8E2"/>
  <rect x="470" y="740" width="160" height="42" rx="12" fill="#E6F0EE"/>
  <rect x="654" y="740" width="136" height="42" rx="12" fill="#D9E8E2"/>
  <g>
    <circle cx="919" cy="733" r="68" fill="#DDEADF"/>
    <rect x="895" y="690" width="48" height="82" rx="10" fill="#8AA783"/>
    <circle cx="919" cy="670" r="46" fill="#A7C39B"/>
    <circle cx="993" cy="756" r="54" fill="#DDEADF"/>
    <rect x="973" y="722" width="40" height="64" rx="10" fill="#8AA783"/>
    <circle cx="993" cy="706" r="38" fill="#A7C39B"/>
  </g>
  <rect x="0" y="0" width="1200" height="900" stroke="#E5E1D8" stroke-width="2"/>
</svg>
